<svg width="40" height="40" viewBox="0 0 40 40" fill="none" xmlns="http://www.w3.org/2000/svg">
<path d="M30.6066 9.3934C36.4644 15.2513 36.4644 24.7487 30.6066 30.6066C24.7487 36.4644 15.2512 36.4644 9.3934 30.6066C3.53553 24.7487 3.53553 15.2512 9.3934 9.3934C15.2513 3.53553 24.7487 3.53553 30.6066 9.3934" stroke="#D26EB7" stroke-width="2.5" stroke-linecap="round" stroke-linejoin="round"/>
<path d="M28.3335 15.4002C27.6752 16.2085 26.7752 16.6669 25.8335 16.6669C24.8918 16.6669 24.0168 16.2085 23.3335 15.4002" stroke="#D26EB7" stroke-width="2.5" stroke-linecap="round" stroke-linejoin="round"/>
<path d="M16.6665 15.4002C16.0082 16.2085 15.1082 16.6669 14.1665 16.6669C13.2248 16.6669 12.3498 16.2085 11.6665 15.4002" stroke="#D26EB7" stroke-width="2.5" stroke-linecap="round" stroke-linejoin="round"/>
<path d="M25.8332 24.48C25.8332 24.48 23.6448 26.6666 19.9998 26.6666C16.3532 26.6666 14.1665 24.48 14.1665 24.48" stroke="#D26EB7" stroke-width="2.5" stroke-linecap="round" stroke-linejoin="round"/>
</svg>
